# xmcd
#
# Track frame offsets:
#	150
#	19314
#	38511
#	56943
#	74259
#	94092
#	112821
#	132828
#	150864
#	167109
#	188619
#	212070
#	229140
#	250908
#	265614
#	284829
#
# Disc length: 4024
#
# Revision: 2
# Processed by: cddbd v1.5.1PL0 Copyright (c) Steve Scherf et al.
# Submitted via: CDex 1.50Beta7
# Normalized: r0:TDELIM( - ),TSWAP
#
DISCID=da0fb610
DTITLE=Vários Artistas - Momentos Inesquecíveis 3
DYEAR=2002
DGENRE=Rhythmic Soul
TTITLE0=Ray, Goodman and Brown - Special Lady
TTITLE1=Dionne W. and Anothers - That's What Friends Are For
TTITLE2=Richard Marx - Right Here Waiting
TTITLE3=Chaka Khan - Got To Be There
TTITLE4=Manhattans - Forever By Your Side
TTITLE5=Deniece Williams - It's Gonna Take A Miracle
TTITLE6=Diana Ross and Lionel Richie - Endless Love
TTITLE7=Barry Manilow - Ships
TTITLE8=Adrian Garvitz - Classic
TTITLE9=Floaters - You Don't Have To Say You Love Me
TTITLE10=Earth, Wind and Fire - Could It Be Right
TTITLE11=Gino Vanelli - Living Inside Myself
TTITLE12=Lillo Thomas - Just My Imagination
TTITLE13=Stylistics - Betcha By Golly, Wow
TTITLE14=The Jets - Make It Real
TTITLE15=Rick James and Smokey Robinson - Ebony Eyes
EXTD=YEAR: 2002
EXTT0=
EXTT1=
EXTT2=
EXTT3=
EXTT4=
EXTT5=
EXTT6=
EXTT7=
EXTT8=
EXTT9=
EXTT10=
EXTT11=
EXTT12=
EXTT13=
EXTT14=
EXTT15=
PLAYORDER=
